HIERARCHY
ROOT hip
{
  OFFSET 0 0 0
  CHANNELS 6 Xposition Yposition Zposition Zrotation Yrotation Xrotation
  JOINT abdomen
  {
    OFFSET 0 20.6881 -0.73152
    CHANNELS 3 Zrotation Xrotation Yrotation
    JOINT chest
    {
      OFFSET 0 11.7043 -0.48768
      CHANNELS 3 Zrotation Xrotation Yrotation
      JOINT neck
      {
        OFFSET 0 22.1894 -2.19456
        CHANNELS 3 Zrotation Xrotation Yrotation
        JOINT head
        {
          OFFSET -0.24384 7.07133 1.2192
          CHANNELS 3 Zrotation Xrotation Yrotation
          JOINT leftEye
          {
            OFFSET 4.14528 8.04674 8.04672
            CHANNELS 3 Zrotation Xrotation Yrotation
            End Site
            {
              OFFSET 1 0 0
            }
          }
          JOINT rightEye
          {
            OFFSET -3.6576 8.04674 8.04672
            CHANNELS 3 Zrotation Xrotation Yrotation
            End Site
            {
              OFFSET 1 0 0
            }
          }
        }
      }
      JOINT rCollar
      {
        OFFSET -2.68224 19.2634 -4.8768
        CHANNELS 3 Zrotation Xrotation Yrotation
        JOINT rShldr
        {
          OFFSET -8.77824 -1.95073 1.46304
          CHANNELS 3 Zrotation Xrotation Yrotation
          JOINT rForeArm
          {
            OFFSET -28.1742 -1.7115 0.48768
            CHANNELS 3 Zrotation Xrotation Yrotation
            JOINT rHand
            {
              OFFSET -22.5879 0.773209 7.07136
              CHANNELS 3 Zrotation Xrotation Yrotation
              JOINT rThumb1
              {
                OFFSET -1.2192 -0.487915 3.41376
                CHANNELS 3 Zrotation Xrotation Yrotation
                JOINT rThumb2
                {
                  OFFSET -3.37035 -0.52449 3.41376
                  CHANNELS 3 Zrotation Xrotation Yrotation
                  End Site
                  {
                    OFFSET -1.78271 -1.18214 1.43049
                  }
                }
              }
              JOINT rIndex1
              {
                OFFSET -7.75947 0.938293 5.60832
                CHANNELS 3 Zrotation Xrotation Yrotation
                JOINT rIndex2
                {
                  OFFSET -2.54057 -0.884171 1.56538
                  CHANNELS 3 Zrotation Xrotation Yrotation
                  End Site
                  {
                    OFFSET -1.62519 -0.234802 1.16502
                  }
                }
              }
              JOINT rMid1
              {
                OFFSET -8.24714 1.18213 3.41376
                CHANNELS 3 Zrotation Xrotation Yrotation
                JOINT rMid2
                {
                  OFFSET -3.10165 -0.590103 1.0647
                  CHANNELS 3 Zrotation Xrotation Yrotation
                  End Site
                  {
                    OFFSET -2.48547 -0.328903 0.83742
                  }
                }
              }
              JOINT rRing1
              {
                OFFSET -8.82822 0.546677 1.51678
                CHANNELS 3 Zrotation Xrotation Yrotation
                JOINT rRing2
                {
                  OFFSET -2.60934 -0.819778 -0.0198488
                  CHANNELS 3 Zrotation Xrotation Yrotation
                  End Site
                  {
                    OFFSET -2.33842 -0.294052 0.168128
                  }
                }
              }
              JOINT rPinky1
              {
                OFFSET -8.27202 -0.0477905 -0.4584
                CHANNELS 3 Zrotation Xrotation Yrotation
                JOINT rPinky2
                {
                  OFFSET -1.82734 -0.647385 -0.700984
                  CHANNELS 3 Zrotation Xrotation Yrotation
                  End Site
                  {
                    OFFSET -1.69225 -0.51767 -0.607171
                  }
                }
              }
            }
          }
        }
      }
      JOINT lCollar
      {
        OFFSET 2.68224 19.2634 -4.8768
        CHANNELS 3 Zrotation Xrotation Yrotation
        JOINT lShldr
        {
          OFFSET 8.77824 -1.95073 1.46304
          CHANNELS 3 Zrotation Xrotation Yrotation
          JOINT lForeArm
          {
            OFFSET 28.1742 -1.7115 0.48768
            CHANNELS 3 Zrotation Xrotation Yrotation
            JOINT lHand
            {
              OFFSET 22.5879 0.773209 7.07136
              CHANNELS 3 Zrotation Xrotation Yrotation
              JOINT lThumb1
              {
                OFFSET 1.2192 -0.487915 3.41376
                CHANNELS 3 Zrotation Xrotation Yrotation
                JOINT lThumb2
                {
                  OFFSET 3.37035 -0.52449 3.41376
                  CHANNELS 3 Zrotation Xrotation Yrotation
                  End Site
                  {
                    OFFSET 1.78271 -1.18214 1.43049
                  }
                }
              }
              JOINT lIndex1
              {
                OFFSET 7.75947 0.938293 5.60832
                CHANNELS 3 Zrotation Xrotation Yrotation
                JOINT lIndex2
                {
                  OFFSET 2.54057 -0.884171 1.56538
                  CHANNELS 3 Zrotation Xrotation Yrotation
                  End Site
                  {
                    OFFSET 1.62519 -0.234802 1.16502
                  }
                }
              }
              JOINT lMid1
              {
                OFFSET 8.24714 1.18213 3.41376
                CHANNELS 3 Zrotation Xrotation Yrotation
                JOINT lMid2
                {
                  OFFSET 3.10165 -0.590103 1.0647
                  CHANNELS 3 Zrotation Xrotation Yrotation
                  End Site
                  {
                    OFFSET 2.48547 -0.328903 0.83742
                  }
                }
              }
              JOINT lRing1
              {
                OFFSET 8.82822 0.546677 1.51678
                CHANNELS 3 Zrotation Xrotation Yrotation
                JOINT lRing2
                {
                  OFFSET 2.60934 -0.819778 -0.0198488
                  CHANNELS 3 Zrotation Xrotation Yrotation
                  End Site
                  {
                    OFFSET 2.33842 -0.294052 0.168128
                  }
                }
              }
              JOINT lPinky1
              {
                OFFSET 8.27202 -0.0477905 -0.4584
                CHANNELS 3 Zrotation Xrotation Yrotation
                JOINT lPinky2
                {
                  OFFSET 1.82734 -0.647385 -0.700984
                  CHANNELS 3 Zrotation Xrotation Yrotation
                  End Site
                  {
                    OFFSET 1.69225 -0.51767 -0.607171
                  }
                }
              }
            }
          }
        }
      }
    }
  }
  JOINT rButtock
  {
    OFFSET -8.77824 4.35084 1.2192
    CHANNELS 3 Zrotation Xrotation Yrotation
    JOINT rThigh
    {
      OFFSET 0 -1.70687 -2.19456
      CHANNELS 3 Zrotation Xrotation Yrotation
      JOINT rShin
      {
        OFFSET 0 -36.8199 0.73152
        CHANNELS 3 Zrotation Xrotation Yrotation
        JOINT rFoot
        {
          OFFSET 0.73152 -45.1104 -5.12064
          CHANNELS 3 Zrotation Xrotation Yrotation
          End Site
          {
            OFFSET -1.1221 -3.69964 12.103
          }
        }
      }
    }
  }
  JOINT lButtock
  {
    OFFSET 8.77824 4.35084 1.2192
    CHANNELS 3 Zrotation Xrotation Yrotation
    JOINT lThigh
    {
      OFFSET 0 -1.70687 -2.19456
      CHANNELS 3 Zrotation Xrotation Yrotation
      JOINT lShin
      {
        OFFSET 0 -36.8199 0.73152
        CHANNELS 3 Zrotation Xrotation Yrotation
        JOINT lFoot
        {
          OFFSET -0.73152 -45.1104 -5.12064
          CHANNELS 3 Zrotation Xrotation Yrotation
          End Site
          {
            OFFSET 1.1221 -3.69964 12.103
          }
        }
      }
    }
  }
}
MOTION
Frames:	4
Frame Time:	0.00833333
57.0833 83.3829 9.40825 -202.458 -54.9771 -135.288 8.14939 10.1596 6.28223 1.8443 -2.22365 1.88887 -2.07302 17.2964 4.14463 -4.07026 -44.7248 6.53792 -0.0 0.0 0.0 -0.0 0.0 0.0 4.89848e-13 -1.00032e-12 6.34719e-13 16.5993 61.8899 74.8552 -28.4306 -35.2692 75.7913 -0.107657 9.31671 1.32116 2.78949e-09 1.19542e-08 3.94705e-09 4.8425e-09 2.06634e-08 6.78307e-09 2.7895e-09 1.19542e-08 3.94705e-09 7.73091 5.47488 0.417314 2.78949e-09 1.19542e-08 3.94706e-09 2.90554 0.965183 0.102902 2.7895e-09 1.19542e-08 3.94705e-09 10.2786 0.731801 0.0259123 2.78948e-09 1.19542e-08 3.94705e-09 2.22167 -0.733487 -0.20892 4.89695e-13 -1.00025e-12 6.34471e-13 -72.7046 -32.83 7.46448 18.6611 -11.4155 -35.5207 2.75481 -41.7713 7.21143 -7.31395e-09 4.02261e-08 9.12395e-09 -1.28916e-08 6.80819e-08 1.55092e-08 -7.31395e-09 4.02261e-08 9.12394e-09 -7.73091 5.47488 -0.417314 -7.31395e-09 4.02261e-08 9.12395e-09 -2.90554 0.965183 -0.102902 -7.31396e-09 4.02261e-08 9.12395e-09 -10.2786 0.731801 -0.0259123 -7.31395e-09 4.02261e-08 9.12395e-09 -2.22167 -0.733487 0.20892 -2.03217e-16 0.0 -3.88251e-19 -24.5563 -46.9496 0.814438 -0.127966 27.6162 0.269156 -1.00705 -8.07388 -4.33374 2.03217e-16 0.0 3.88251e-19 8.2824 -12.3947 -11.4954 -0.0139807 6.10504 -0.325578 9.63385 -28.6524 16.7284
57.0686 83.3846 9.37412 -202.652 -55.3374 -134.869 8.22551 10.06 6.33204 1.78142 -2.15902 1.90088 -2.09768 17.0733 4.69983 -4.60401 -44.3307 7.50362 -0.0 0.0 0.0 -0.0 0.0 0.0 5.23162e-13 -8.59196e-13 5.13572e-13 16.9052 61.8035 74.5502 -28.4318 -35.3299 75.8898 -0.103376 9.13824 1.29538 2.37744e-09 1.0512e-08 3.29492e-09 4.12879e-09 1.81679e-08 5.65955e-09 2.37745e-09 1.0512e-08 3.29492e-09 7.73091 5.47488 0.417314 2.37744e-09 1.0512e-08 3.29493e-09 2.90554 0.965183 0.102902 2.37745e-09 1.0512e-08 3.29492e-09 10.2786 0.731801 0.0259123 2.37744e-09 1.0512e-08 3.29491e-09 2.22167 -0.733487 -0.20892 5.23014e-13 -8.59149e-13 5.13328e-13 -72.7192 -32.7791 7.36312 18.7191 -11.4814 -35.6537 2.71981 -41.5647 7.1589 -7.06425e-09 3.72495e-08 8.45293e-09 -1.24399e-08 6.30032e-08 1.43585e-08 -7.06425e-09 3.72495e-08 8.45292e-09 -7.73091 5.47488 -0.417314 -7.06425e-09 3.72495e-08 8.45293e-09 -2.90554 0.965183 -0.102902 -7.06426e-09 3.72495e-08 8.45293e-09 -10.2786 0.731801 -0.0259123 -7.06425e-09 3.72495e-08 8.45292e-09 -2.22167 -0.733487 0.20892 -2.03217e-16 0.0 -3.88251e-19 -24.7053 -46.874 0.738645 -0.128209 27.6526 0.273874 -1.04635 -8.23542 -4.45788 2.03217e-16 0.0 3.88251e-19 8.26319 -12.5005 -11.5552 -0.01502 6.058 -0.332153 9.86139 -28.5314 17.1721
56.9768 83.4038 9.37404 -203.256 -55.3149 -134.327 8.31979 9.93193 6.29983 1.72306 -2.07496 1.88943 -2.13535 16.6994 5.34107 -5.24017 -43.7126 8.61893 -0.0 0.0 0.0 -0.0 0.0 0.0 6.03747e-13 -7.0181e-13 2.94288e-13 17.0339 61.7036 74.3829 -28.4335 -35.4629 76.1086 -0.0968951 8.85332 1.25432 1.03732e-09 7.50754e-09 2.4675e-09 1.81234e-09 1.29716e-08 4.24097e-09 1.03733e-09 7.50754e-09 2.4675e-09 7.73091 5.47488 0.417314 1.03733e-09 7.50754e-09 2.4675e-09 2.90554 0.965183 0.102902 1.03734e-09 7.50754e-09 2.46749e-09 10.2786 0.731801 0.0259123 1.03732e-09 7.50754e-09 2.46749e-09 2.22167 -0.733487 -0.20892 6.03593e-13 -7.01809e-13 2.94055e-13 -72.7568 -32.7741 7.25457 18.7925 -11.5649 -35.8234 2.67894 -41.3202 7.09722 -5.57411e-09 2.72067e-08 6.14858e-09 -9.79656e-09 4.59641e-08 1.04287e-08 -5.57411e-09 2.72067e-08 6.14858e-09 -7.73091 5.47488 -0.417314 -5.57411e-09 2.72068e-08 6.14858e-09 -2.90554 0.965183 -0.102902 -5.57411e-09 2.72067e-08 6.14858e-09 -10.2786 0.731801 -0.0259123 -5.57411e-09 2.72067e-08 6.14858e-09 -2.22167 -0.733487 0.20892 -2.03217e-16 0.0 -3.88251e-19 -24.9155 -46.7846 0.591288 -0.128433 27.6905 0.278952 -1.08913 -8.3888 -4.59888 2.03217e-16 0.0 3.88251e-19 8.24177 -12.6287 -11.6774 -0.0162137 6.0193 -0.340481 10.1448 -28.3705 17.7305
56.9156 83.4207 9.32005 -203.646 -55.3894 -134.077 8.40518 9.81506 6.2912 1.64523 -2.00105 1.88485 -2.14747 16.3128 6.03733 -6.0236 -43.0574 9.7918 -0.0 0.0 0.0 -0.0 0.0 0.0 6.58395e-13 -5.43977e-13 7.26628e-14 17.2596 61.6289 74.1262 -28.4339 -35.6104 76.3554 -0.0913205 8.59224 1.21677 -3.18988e-10 4.06586e-09 1.49858e-09 -5.33338e-10 7.01986e-09 2.57865e-09 -3.1898e-10 4.06586e-09 1.49858e-09 7.73091 5.47488 0.417314 -3.18986e-10 4.06586e-09 1.49858e-09 2.90554 0.965183 0.102902 -3.18976e-10 4.06586e-09 1.49857e-09 10.2786 0.731801 0.0259123 -3.18991e-10 4.06586e-09 1.49857e-09 2.22167 -0.733487 -0.20892 6.58233e-13 -5.44022e-13 7.24458e-14 -72.7941 -32.7011 7.1061 18.8772 -11.6618 -36.0196 2.63974 -41.0818 7.03765 -3.67932e-09 1.53747e-08 3.43166e-09 -6.44295e-09 2.59076e-08 5.80017e-09 -3.67932e-09 1.53747e-08 3.43166e-09 -7.73091 5.47488 -0.417314 -3.67932e-09 1.53747e-08 3.43166e-09 -2.90554 0.965183 -0.102902 -3.67932e-09 1.53747e-08 3.43166e-09 -10.2786 0.731801 -0.0259123 -3.67931e-09 1.53747e-08 3.43166e-09 -2.22167 -0.733487 0.20892 -2.03217e-16 0.0 -3.88251e-19 -25.1261 -46.6734 0.447402 -0.128515 27.7215 0.284055 -1.13601 -8.5378 -4.75818 2.03217e-16 0.0 3.88251e-19 8.2225 -12.758 -11.8195 -0.0173811 5.98645 -0.348866 10.4254 -28.2088 18.2864
